<svg id="svg" version="1.1" xmlns="http://www.w3.org/2000/svg" xmlns:xlink="http://www.w3.org/1999/xlink" width="400" height="400" viewBox="0, 0, 400,400"><g id="svgg"><path id="path0" d="M193.467 7.932 C 177.292 10.585,170.082 17.576,164.905 35.627 C 160.258 51.834,160.857 51.016,151.971 53.270 C 133.345 57.996,117.127 71.981,107.335 91.761 C 97.673 111.280,84.309 142.548,85.273 143.382 C 85.734 143.780,95.361 151.628,106.667 160.821 C 131.334 180.879,129.462 178.898,147.985 204.540 L 162.903 225.190 168.223 242.873 C 171.149 252.598,175.458 266.806,177.799 274.444 C 182.872 290.999,184.096 296.721,184.930 307.778 C 189.435 367.493,191.574 390.667,192.647 391.372 C 196.713 394.044,196.667 395.269,196.667 285.947 L 196.667 179.671 189.043 169.558 C 163.153 135.211,158.822 128.721,159.407 125.138 C 159.719 123.229,160.757 115.667,161.714 108.333 C 162.671 101.000,163.661 93.974,163.915 92.721 C 164.215 91.239,166.625 89.374,170.799 87.394 L 177.222 84.346 188.207 87.664 L 199.192 90.982 198.525 84.658 C 198.159 81.179,197.280 74.460,196.573 69.727 L 195.287 61.120 190.699 59.901 C 183.422 57.968,182.891 57.413,180.755 49.501 C 178.106 39.690,178.174 39.679,190.219 47.991 C 195.904 51.915,201.127 55.468,201.825 55.888 C 202.528 56.310,207.886 53.180,213.822 48.881 C 226.703 39.552,225.892 39.652,224.941 47.500 C 223.913 55.978,222.992 57.458,217.778 59.020 C 211.407 60.929,209.885 63.209,208.815 72.445 C 207.171 86.634,206.131 85.298,219.167 85.732 C 229.702 86.083,230.930 86.364,235.556 89.486 L 240.556 92.862 243.575 106.153 C 247.021 121.326,248.889 136.137,248.889 148.303 L 248.889 156.693 253.056 156.167 C 255.347 155.878,261.972 155.357,267.778 155.009 L 278.333 154.377 296.898 141.996 L 315.462 129.615 310.278 120.085 C 283.360 70.599,276.660 62.745,254.694 54.928 C 244.005 51.125,244.427 51.586,240.018 38.889 C 231.099 13.204,217.294 4.024,193.467 7.932 " stroke="none" fill="#000000" fill-rule="evenodd"></path></g></svg>